<svg fill="none" height="60" viewBox="0 0 61 60" width="61" xmlns="http://www.w3.org/2000/svg"><path d="m56.75 29.8359c0-.1289 0-.2754-.0059-.4453-.0058-.4746-.0175-1.0078-.0293-1.5761-.0468-1.6348-.1289-3.2637-.2578-4.7989-.1758-2.1152-.4336-3.8789-.7851-5.2031-.371-1.3819-1.0982-2.6423-2.109-3.6551-1.0107-1.0128-2.2696-1.7426-3.6508-2.1164-1.6582-.4453-4.9043-.7207-9.4746-.8906-2.1738-.082-4.5-.1348-6.8262-.1641-.8144-.0117-1.5703-.0175-2.25-.0234h-1.7226c-.6797.0059-1.4356.0117-2.25.0234-2.3262.0293-4.6524.0821-6.8262.1641-4.5703.1758-7.8223.4512-9.4746.8906-1.38164.3729-2.64101 1.1024-3.6519 2.1153-1.01089 1.013-1.7378 2.2738-2.10787 3.6562-.35743 1.3242-.60938 3.0879-.78516 5.2031-.12891 1.5352-.21094 3.1641-.25781 4.7989-.01758.5683-.02344 1.1015-.0293 1.5761 0 .1699-.00586.3164-.00586.4453v.3282c0 .1289 0 .2754.00586.4453.00586.4746.01758 1.0078.0293 1.5761.04687 1.6348.1289 3.2637.25781 4.7989.17578 2.1152.43359 3.8789.78516 5.2031.75 2.8066 2.95312 5.0215 5.75977 5.7715 1.6523.4453 4.9043.7207 9.4746.8906 2.1738.082 4.5.1348 6.8262.1641.8144.0117 1.5703.0176 2.25.0234h1.7226c.6797-.0058 1.4356-.0117 2.25-.0234 2.3262-.0293 4.6524-.0821 6.8262-.1641 4.5703-.1758 7.8223-.4512 9.4746-.8906 2.8067-.75 5.0098-2.959 5.7598-5.7715.3574-1.3242.6093-3.0879.7851-5.2031.1289-1.5352.211-3.1641.2578-4.7989.0176-.5683.0235-1.1015.0293-1.5761 0-.1699.0059-.3164.0059-.4453zm-4.2188.3047c0 .1231 0 .2578-.0058.416-.0059.4571-.0176.961-.0293 1.5059-.041 1.5586-.1231 3.1172-.2461 4.5645-.1582 1.8867-.3809 3.4335-.6562 4.4707-.3633 1.3535-1.4297 2.4257-2.7774 2.7832-1.2305.3281-4.3301.5918-8.543.75-2.1328.082-4.4297.1347-6.7207.164-.8027.0117-1.5468.0176-2.2148.0176h-1.6758l-2.2148-.0176c-2.2911-.0293-4.5821-.082-6.7207-.164-4.2129-.1641-7.3184-.4219-8.543-.75-1.3477-.3633-2.41407-1.4297-2.77735-2.7832-.27539-1.0372-.49805-2.584-.65625-4.4707-.12305-1.4473-.19922-3.0059-.24609-4.5645-.01758-.5449-.02344-1.0547-.0293-1.5059 0-.1582-.00586-.2988-.00586-.416v-.2812c0-.1231 0-.2578.00586-.416.00586-.4571.01758-.961.0293-1.5059.04101-1.5586.12304-3.1172.24609-4.5645.1582-1.8867.38086-3.4335.65625-4.4707.36328-1.3535 1.42965-2.4257 2.77735-2.7832 1.2305-.3281 4.3301-.5918 8.543-.75 2.1328-.082 4.4296-.1347 6.7207-.164.8027-.0117 1.5468-.0176 2.2148-.0176h1.6758l2.2148.0176c2.291.0293 4.5821.082 6.7207.164 4.2129.1641 7.3184.4219 8.543.75 1.3477.3633 2.4141 1.4297 2.7774 2.7832.2753 1.0372.498 2.584.6562 4.4707.123 1.4473.1992 3.0059.2461 4.5645.0176.5449.0234 1.0547.0293 1.5059 0 .1582.0058.2988.0058.416zm-27.246 7.711 13.5937-7.9102-13.5937-7.793z" fill="#ffd700"/></svg>