<svg fill="none" height="60" viewBox="0 0 61 60" width="61" xmlns="http://www.w3.org/2000/svg" xmlns:xlink="http://www.w3.org/1999/xlink"><clipPath id="a"><path d="m.5 0h60v60h-60z"/></clipPath><g clip-path="url(#a)"><path d="m30.5 0c-8.1413 0-9.165.0375-12.3638.18-3.1987.15-5.3775.6525-7.2862 1.395-2.00308.75122-3.81697 1.93274-5.31375 3.46125-1.52851 1.49678-2.71003 3.31067-3.46125 5.31375-.7425 1.905-1.24875 4.0875-1.395 7.275-.1425 3.2062-.18 4.2263-.18 12.3788 0 8.145.0375 9.165.18 12.3637.15 3.195.6525 5.3737 1.395 7.2825.76875 1.9725 1.7925 3.645 3.46125 5.3137 1.665 1.6688 3.3375 2.6963 5.31005 3.4613 1.9124.7425 4.0875 1.2487 7.2824 1.395 3.2026.1425 4.2225.18 12.3713.18s9.165-.0375 12.3675-.18c3.1913-.15 5.3775-.6525 7.2863-1.395 2.0017-.7517 3.8143-1.9332 5.3099-3.4613 1.6688-1.6687 2.6925-3.3412 3.4613-5.3137.7387-1.9088 1.245-4.0875 1.395-7.2825.1425-3.1987.18-4.2187.18-12.3675s-.0375-9.1687-.18-12.3713c-.15-3.1912-.6563-5.3737-1.395-7.2787-.7512-2.00308-1.9327-3.81697-3.4613-5.31375-1.4967-1.52851-3.3106-2.71003-5.3137-3.46125-1.9125-.7425-4.095-1.24875-7.2862-1.395-3.2025-.1425-4.2188-.18-12.3713-.18zm-2.6887 5.4075h2.6925c8.01 0 8.9587.02625 12.1199.1725 2.925.13125 4.515.6225 5.5726 1.03125 1.3987.54375 2.3999 1.19625 3.4499 2.24625 1.0501 1.05 1.6988 2.0475 2.2426 3.45.4125 1.0537.8999 2.6438 1.0312 5.5688.1462 3.1612.1762 4.1099.1762 12.1162 0 8.0062-.03 8.9587-.1762 12.12-.1313 2.925-.6225 4.5112-1.0312 5.5688-.4844 1.3008-1.2516 2.4779-2.2463 3.4462-1.05 1.05-2.0475 1.6988-3.45 2.2425-1.05.4125-2.64.9-5.5688 1.035-3.1612.1425-4.1099.1763-12.1199.1763s-8.9625-.0338-12.1238-.1763c-2.925-.135-4.5113-.6225-5.5688-1.035-1.3018-.4828-2.4802-1.2487-3.44995-2.2425-.99647-.969-1.76502-2.1474-2.25-3.45-.40875-1.0538-.9-2.6438-1.03125-5.5688-.1425-3.1612-.1725-4.11-.1725-12.1237 0-8.0138.03-8.955.1725-12.1163.135-2.925.6225-4.5149 1.035-5.5724.54375-1.3988 1.19625-2.40005 2.24625-3.45005 1.05005-1.05 2.04745-1.69875 3.44995-2.2425 1.0575-.4125 2.6438-.9 5.5688-1.035 2.7675-.1275 3.84-.165 9.4313-.16875zm18.705 4.98c-.4728 0-.9409.0931-1.3777.274-.4368.181-.8336.4461-1.1679.7804s-.5995.7312-.7804 1.1679c-.1809.4368-.2741.9049-.2741 1.3777s.0932.9409.2741 1.3777c.1809.4367.4461.8336.7804 1.1679s.7311.5994 1.1679.7804c.4368.1809.9049.274 1.3777.274.9547 0 1.8704-.3793 2.5455-1.0544.6752-.6751 1.0544-1.5908 1.0544-2.5456s-.3792-1.8705-1.0544-2.5456c-.6751-.6751-1.5908-1.0544-2.5455-1.0544zm-16.0125 4.2075c-2.0435-.0319-4.0729.3431-5.9701 1.103-1.8972.76-3.6243 1.8898-5.0806 3.3236-1.4564 1.4338-2.613 3.143-3.4024 5.0281-.7895 1.8851-1.1961 3.9084-1.1961 5.9522 0 2.0437.4066 4.067 1.1961 5.9521.7894 1.8851 1.946 3.5943 3.4024 5.0282 1.4563 1.4338 3.1834 2.5636 5.0806 3.3235 1.8972.76 3.9266 1.1349 5.9701 1.1031 4.0445-.0632 7.902-1.7141 10.7399-4.5966 2.8378-2.8825 4.4284-6.7653 4.4284-10.8103s-1.5906-7.9279-4.4284-10.8103c-2.8379-2.8825-6.6954-4.5335-10.7399-4.5966zm0 5.4038c1.3133 0 2.6139.2586 3.8273.7612 1.2134.5027 2.3159 1.2393 3.2446 2.168.9287.9288 1.6654 2.0313 2.168 3.2447s.7613 2.5139.7613 3.8273-.2587 2.6139-.7613 3.8273-1.2393 2.3159-2.168 3.2447c-.9287.9287-2.0312 1.6653-3.2446 2.1679-1.2134.5027-2.514.7614-3.8273.7614-2.6525-.0001-5.1964-1.0538-7.072-2.9293-1.8756-1.8756-2.9293-4.4195-2.9293-7.072s1.0537-5.1964 2.9293-7.072c1.8756-1.8755 4.4195-2.9292 7.072-2.9292z" fill="#ffd700"/></g></svg>