<svg fill="none" height="30" viewBox="0 0 29 30" width="29" xmlns="http://www.w3.org/2000/svg"><path d="m2.71875 5.03125v16.31255c0 2.0028 1.62219 3.625 3.625 3.625h16.31245c2.0029 0 3.625-1.6222 3.625-3.625v-9.9688h-5.4374v-6.34375zm1.8125 1.8125h14.49995v14.50005c0 .6615.1994 1.2778.5103 1.8124h-13.19775c-1.07844 0-1.8125-.734-1.8125-1.8124zm1.8125 1.8125v4.53125h10.87505v-4.53125zm1.8125 1.81255h7.24995v.9062h-7.24995zm12.68755 2.7187h3.625v8.1563c0 1.0784-.7341 1.8124-1.8126 1.8124-1.0784 0-1.8124-.734-1.8124-1.8124zm-14.50005.9063v1.8124h4.53125v-1.8124zm6.34375 0v1.8124h4.5313v-1.8124zm-6.34375 2.7187v1.8125h4.53125v-1.8125zm6.34375 0v1.8125h4.5313v-1.8125zm-6.34375 2.7187v1.8126h4.53125v-1.8126zm6.34375 0v1.8126h4.5313v-1.8126z" fill="#eff1f3"/></svg>