<svg fill="none" height="60" viewBox="0 0 61 60" width="61" xmlns="http://www.w3.org/2000/svg"><path d="m53 16.875c-2.9827-.0031-5.8424-1.1894-7.9515-3.2985s-3.2954-4.96877-3.2985-7.9515c0-.49728-.1975-.97419-.5492-1.32583-.3516-.35163-.8285-.54917-1.3258-.54917h-9.375c-.4973 0-.9742.19754-1.3258.54917-.3517.35164-.5492.82855-.5492 1.32583v30.9375c-.0004.8388-.2258 1.6621-.6528 2.3841s-1.0399 1.3161-1.7748 1.7205-1.5648.6042-2.4032.5786c-.8384-.0257-1.6545-.2758-2.3633-.7244-.7088-.4485-1.2843-1.079-1.6664-1.8257-.382-.7467-.5567-1.5823-.5059-2.4196.0509-.8372.3255-1.6455.7952-2.3404.4697-.695 1.1172-1.2512 1.8751-1.6106.3206-.1521.5914-.3921.781-.6921s.2902-.6476.2901-1.0024v-10.0055c.0001-.2741-.0599-.5449-.1757-.7933-.1158-.2483-.2847-.4683-.4947-.6444-.2101-.1761-.4562-.304-.721-.3747s-.5419-.0824-.8117-.0345c-8.3649 1.4907-14.6719 9.136-14.6719 17.7844 0 4.7242 1.87667 9.2548 5.2172 12.5953 3.3405 3.3405 7.8711 5.2172 12.5953 5.2172s9.2548-1.8767 12.5953-5.2172 5.2172-7.8711 5.2172-12.5953v-9.307c3.4726 1.8118 7.3331 2.7536 11.25 2.7445.4973 0 .9742-.1975 1.3258-.5492.3517-.3516.5492-.8285.5492-1.3258v-9.375c0-.4973-.1975-.9742-.5492-1.3258-.3516-.3517-.8285-.5492-1.3258-.5492zm-1.875 9.2906c-3.6641-.3247-7.1727-1.6324-10.1555-3.7851-.2803-.2016-.6109-.3218-.9552-.3475-.3444-.0256-.6891.0443-.9962.2021s-.5647.3974-.7444.6922c-.1796.2949-.2743.6337-.2737.9789v12.6563c0 3.7296-1.4816 7.3065-4.1188 9.9437s-6.2141 4.1188-9.9437 4.1188-7.3065-1.4816-9.9437-4.1188-4.1188-6.2141-4.1188-9.9437c0-6.0703 3.9-11.5148 9.375-13.5v6.4852c-1.2121.8098-2.1936 1.9199-2.8491 3.2219-.6554 1.3021-.9623 2.7518-.8907 4.2078.0715 1.4559.519 2.8685 1.299 4.1001.7799 1.2315 1.8655 2.24 3.1512 2.9271 1.2856.6871 2.7273 1.0295 4.1846.9936 1.4573-.0358 2.8804-.4486 4.1307-1.1981s2.2851-1.8102 3.0035-3.0786 1.0959-2.7013 1.0958-4.159v-29.0625h5.7422c.4217 3.3025 1.9277 6.3717 4.2819 8.7259s5.4234 3.8602 8.7259 4.2819z" fill="#ffd700"/></svg>