<svg fill="none" height="40" viewBox="0 0 41 40" width="41" xmlns="http://www.w3.org/2000/svg"><rect fill="#f8f7f7" height="40" rx="7" width="40.2092" x=".100464" y=".000031"/><path d="m29.1182 30.5-7.3885-7.35c-.5864.4667-1.2607.8361-2.023 1.1084-.7623.2722-1.5735.4083-2.4335.4083-2.1305 0-3.9335-.7342-5.4088-2.2027-1.4753-1.4684-2.21341-3.262-2.21419-5.3806 0-2.1195.73809-3.913 2.21419-5.3807s3.2791-2.20189 5.4088-2.20267c2.1305 0 3.9339.73427 5.41 2.20267s2.2138 3.262 2.213 5.3807c0 .8555-.1368 1.6625-.4105 2.4208-.2736.7583-.645 1.4292-1.1141 2.0125l7.3884 7.35zm-11.845-8.1666c1.466 0 2.7122-.5103 3.7388-1.5307 1.0265-1.0204 1.5394-2.2602 1.5387-3.7193 0-1.4584-.5129-2.6978-1.5387-3.7182s-2.2721-1.5311-3.7388-1.5318c-1.466 0-2.7118.5106-3.7376 1.5318s-1.5391 2.2606-1.5399 3.7182c0 1.4583.5133 2.6981 1.5399 3.7193s2.2724 1.5314 3.7376 1.5307z" fill="#327bc0"/></svg>