<svg fill="none" height="60" viewBox="0 0 61 60" width="61" xmlns="http://www.w3.org/2000/svg" xmlns:xlink="http://www.w3.org/1999/xlink"><clipPath id="a"><path d="m.5 0h60v60h-60z"/></clipPath><g clip-path="url(#a)"><path d="m34.5875 4.71637c.2231 0 .3515.00937.3515.00937h4.8966l-.0253 5.62496h-4.8637c-2.6766 0-2.6147 2.2856-2.6147 2.2856v8.9175h9.4706l-1.3219 5.6175h-8.1797v28.1119h-5.6193l-.0038-28.1119h-7.4653l-.015-5.6175h7.4831v-8.7412c.0008-7.62192 6.331-8.09623 7.9069-8.09623zm0-3.750061c-1.3481 0-3.9826.223181-6.4782 1.726931-2.3625 1.42125-5.1779 4.33213-5.1779 10.11846v4.9912h-3.7331c-.9965 0-1.9519.3975-2.6569 1.1025-.3483.3498-.6241.7648-.8117 1.2214-.1876.4565-.2832.9457-.2813 1.4393l.015 5.6175c.0075 2.0653 1.6847 3.7368 3.75 3.7368h3.7153l.0037 24.3619c0 2.0709 1.6792 3.75 3.75 3.75h5.6195c2.0709 0 3.75-1.6791 3.75-3.75v-24.3619h4.4297c1.664 0 3.1293-1.0968 3.598-2.6933l1.3219-5.6176c.3328-1.1334.1115-2.3587-.5972-3.3028-.3487-.4669-.8016-.8459-1.3226-1.107-.5209-.261-1.0957-.3969-1.6784-.3968h-5.7206v-3.7003l3.7284-.0019c2.0635 0 3.7407-1.6678 3.75-3.7331l.0253-5.43467c.0038-.069.0057-.13809.0057-.20719 0-2.07094-1.6753-3.749998-3.7462-3.749998h-4.801c-.1078-.005625-.2634-.009375-.4574-.009433z" fill="#ffd700"/></g></svg>